<svg height="37.069843mm" viewBox="0 0 246.69137 131.34984" width="69.621788mm" xmlns="http://www.w3.org/2000/svg"><g style="fill:none;stroke:#3c3c3c;stroke-width:3;stroke-linecap:round;stroke-linejoin:round;stroke-miterlimit:10" transform="translate(0 -921.01239)"><path d="m2.1495596 942.60159c-.2659419 12.48901 2.000736 24.94017.8519726 37.43645-.2016245 8.13136-.3977558 16.27182.1129179 24.40376.058436 12.6911-.6671906 24.3964.1145194 37.0762 3.2538451 5.7445 10.0856435 7.5674 16.0364825 8.2186 4.532454-.076 9.07571-.7269 13.621027-.042 6.80078.7623 13.939159 1.4393 20.782977.7081 8.330727-.4558 13.765355-.1043 22.085025-.01 1.155681-.1256 5.572421-.4065 7.182582-.4457"/><path d="m82.14802 1049.9622c14.28815-.627 28.58782-.2202 42.87744-.3994 14.06729-.7752 28.2336.9773 42.25207-.5146 13.33395-1.0531 26.76563.1694 40.13417-.5311 7.18548-.7075 14.4118.1503 21.61423-.4527 6.81513-.42 11.81876-.1448 13.13293-6.0369.32602-4.8023.54781-9.6145 1.2189-14.3875"/><path d="m243.37776 1027.4139c.46355-7.013.6778-14.0245 1.43602-21.0197.71112-10.61166-.41551-21.2155-.70333-31.82494-.68558-13.5174-1.13889-27.04335-.92619-40.57842 1.61592-7.34285-4.43273-12.83365-11.59763-10.97386-8.16121.5411-16.34557 1.04024-24.49694 1.46463-5.94139.9113-11.98225-.10388-17.96283.35638-6.55032-.44688-13.14715-1.64498-19.65036-.0885-10.66111.58917-21.3243-1.01984-32.00365-.40699-8.55747.0726-17.10126.90545-25.63913-.0257-1.6707-.0389-3.34252-.0251-5.01253.0354"/><path d="m106.6314 924.35221c-8.3097-.0571-16.646832-.0391-24.886927-1.21898-11.57422-.85318-23.075537 1.35494-34.646843 1.32337-8.121076.19582-16.248339-.0129-24.359092-.41488-6.014033-.31489-12.015459-1.23669-18.0385284-1.14053-3.8036023 1.82512-2.9473348 6.86039-3.0023673 10.36353.08752 2.95258.2239444 5.90354.3854786 8.85293"/></g></svg>