<svg enable-background="new 0 0 467.276 467.276" height="467.276" viewBox="0 0 467.276 467.276" width="467.276" xmlns="http://www.w3.org/2000/svg"><path d="m379.281 51.144c-31.027-26.847-69.716-37.684-109.704-42.472-106.509-33.972-201.515 36.287-242.999 133.708-44.714 105.002-23.44 222.217 73.516 287.698 98.985 66.846 235.019 39.369 310.95-48.627 82.979-96.177 62.495-248.732-31.763-330.307zm-182.434 381.559c-56.152-7.993-110.637-42.543-139.091-91.805-25.438-44.047-25.225-99.203-13.822-147.312 17.529-73.96 70.568-140.71 139.888-156.686.104.005.19.035.295.035 24.95.739 51.292.782 77.046 3.567 2.438.764 4.88 1.523 7.332 2.42 4.062 1.48 7.612 1.29 10.588.071 27.781 4.677 54.313 13.579 76.951 31.392 50.079 39.405 76.479 110.461 75.032 172.696-2.712 117.308-123.101 201.435-234.219 185.622z"/><path d="m169.276 211.913c23.28 0 23.28-36.104 0-36.104-23.277-.001-23.277 36.104 0 36.104z"/><path d="m293.833 213.715c23.277 0 23.277-36.102 0-36.102-23.282 0-23.282 36.102 0 36.102z"/><path d="m302.731 274.966c-43.25 42.975-99.046 38.689-142.352-1.808-16.98-15.879-42.566 9.598-25.529 25.532 57.625 53.893 136.062 58.787 193.407 1.802 16.535-16.427-9.003-41.948-25.526-25.526z"/></svg>