<svg height="16.231627mm" viewBox="0 0 112.58626 57.513637" width="31.774345mm" xmlns="http://www.w3.org/2000/svg"><path d="m15.473887 996.80148c5.572695-.10841 11.15435-.0543 16.714039.0906 5.00588.097 12.756552.87502 19.148382.62208 4.280136.48559 8.602875-.3113 12.911003.28777 6.163273-.0723 12.310277-1.00298 18.496194-.66376 5.809548.33404 10.05299.46817 17.518635.33084 7.40211-.5156 10.78398.10152 10.26306 7.29349-.30215 6.1264-.16697 11.363-.17477 16.0423.0347 8.6483 1.36124 24.9985-.56672 27.6141-2.95146 3.7906-9.953646 1.0759-14.305775 1.16-3.987162-.1435-9.602158 1.1027-13.522882.042-4.88004-.6726-8.213389.6597-13.114383.3055-4.963838 0-9.786599-.8446-14.568998.3116-5.884763.7772-13.383599.6445-19.199969-.5102-5.841812-.9029-9.964291-.064-15.840154-.1277-4.77834-.049-15.0361127 1.7577-16.6046758-.035-1.74810147-1.8496-.3843824-11.7811-.4378816-15.6446-.3742554-9.2274-.5360118-15.6032.1290928-24.8231.086012-1.6135-1.1338399-8.4214.014457-10.2105 2.4145353-3.57088 9.2572886-1.58703 13.1413456-2.08502z" style="fill:none;stroke:#3c3c3c;stroke-width:3;stroke-linecap:round;stroke-linejoin:round;stroke-miterlimit:10" transform="translate(-.000001 -994.84816)"/></svg>