<svg height="5.406815" viewBox="0 0 642.05107 5.4068151" width="642.05109" xmlns="http://www.w3.org/2000/svg"><path d="m1.6677144 1049.7325c5.1049374-.2298 16.4304496-.1081 33.9763996.365s31.345838.661 41.399638.5635c10.053825-.097 15.895737-.1068 17.525725-.028 1.629986.079 9.715583.1012 24.256823.068 14.5412-.034 24.65852-.1442 30.35192-.3319 5.69349-.1878 10.54195-.286 14.54538-.2949 4.00355-.01 9.81015-.1846 17.4199-.5274 7.60977-.3428 12.92342-.4862 15.94107-.4299 3.01768.056 7.35064.2821 12.9988.6778 5.64828.3959 15.35577.4631 29.12259.2017 13.76686-.2614 23.86426-.2958 30.29228-.1033 6.42805.1925 17.02211.3082 31.7823.347 14.76018.039 28.36995-.0004 40.82932-.1174 12.45943-.117 22.04856-.3147 28.76761-.5927 6.71908-.2781 14.7894-.3299 24.21095-.1558 9.42173.1741 26.80245.1938 52.14224.059 25.33989-.1347 43.50105-.1743 54.4835-.1186 10.98258.056 23.80371-.052 38.46334-.3235 14.65971-.2713 25.89123-.4016 33.69451-.3908 7.80333.011 17.77897.2387 29.92697.6836 12.14804.4448 19.34437.6107 21.58889.4974 2.24461-.1133 7.24313-.2041 14.99548-.2723" style="fill:none;stroke:#3c3c3c;stroke-width:3;stroke-linecap:round;stroke-linejoin:round;stroke-miterlimit:10" transform="translate(0 -1046.9554)"/></svg>